<svg width="123" height="128" viewBox="0 0 123 128" fill="none" xmlns="http://www.w3.org/2000/svg">
<g clip-path="url(#clip0_71_100)">
<g clip-path="url(#clip1_71_100)">
<g opacity="0.3">
<path d="M69.4994 61.3104C68.3078 61.3156 67.3506 62.3149 67.3556 63.5461C67.3556 63.5513 67.3556 63.5513 67.3556 63.5564C67.3556 63.5616 67.3556 63.5667 67.3556 63.5719C67.3556 64.7979 68.3178 65.7973 69.5094 65.7973C70.696 65.7973 71.6632 64.7979 71.6632 63.5719C71.6632 63.5564 71.6632 63.541 71.6632 63.5255C71.6582 62.2995 70.686 61.3053 69.4994 61.3104Z" fill="url(#paint0_linear_71_100)"/>
<path d="M56.4271 72.6746C56.7662 72.8755 57.1351 72.9682 57.499 72.9682C58.2469 72.9682 58.9698 72.5715 59.3686 71.8555C59.9619 70.7943 59.608 69.4291 58.5809 68.8161C57.5489 68.2031 56.2327 68.5689 55.6394 69.6352C55.0411 70.6964 55.3951 72.0564 56.4271 72.6746Z" fill="url(#paint1_linear_71_100)"/>
<path d="M57.4791 58.642C57.8431 58.642 58.217 58.5442 58.556 58.3381C59.588 57.7199 59.937 56.3548 59.3338 55.2936C58.7355 54.2324 57.4193 53.8718 56.3923 54.4899C55.3652 55.1081 55.0162 56.4733 55.6145 57.5345C56.0134 58.2454 56.7363 58.642 57.4791 58.642Z" fill="url(#paint2_linear_71_100)"/>
<path d="M41.1762 68.8111C40.0494 69.2386 39.4711 70.5265 39.8849 71.6907L39.8998 71.7371C40.2189 72.6438 41.0416 73.1898 41.919 73.1898C42.1733 73.1898 42.4276 73.1435 42.6818 73.0507C43.8086 72.6232 44.3769 71.3095 43.9681 70.1453C43.5493 68.9811 42.3029 68.3835 41.1762 68.8111Z" fill="url(#paint3_linear_71_100)"/>
<path d="M80.1487 63.6183C80.1487 64.8598 81.1209 65.8644 82.3224 65.8644C83.5239 65.8644 84.4961 64.8598 84.4961 63.6183V63.572C84.4961 63.5617 84.4961 63.5514 84.4961 63.5359C84.4961 63.5256 84.4961 63.5102 84.4961 63.4999C84.4961 63.4947 84.4961 63.4896 84.4961 63.4844C84.4961 62.2429 83.5239 61.2384 82.3224 61.2384C81.1209 61.2384 80.1487 62.2429 80.1487 63.4844C80.1487 63.4947 80.1487 63.5565 80.1487 63.5668C80.1487 63.572 80.1487 63.572 80.1487 63.5771C80.1487 63.5874 80.1487 63.6029 80.1487 63.6183Z" fill="url(#paint4_linear_71_100)"/>
<path d="M75.7613 75.9871C74.9886 76.9401 75.1132 78.3567 76.0355 79.1501C76.4443 79.5004 76.9379 79.6755 77.4265 79.6755C78.0497 79.6755 78.6629 79.4025 79.0967 78.8719L79.1266 78.8358C79.8994 77.8828 79.7598 76.4867 78.8374 75.6934C77.9151 74.8898 76.5291 75.034 75.7613 75.9871Z" fill="url(#paint5_linear_71_100)"/>
<path d="M52.9771 83.3227C53.5704 82.2461 53.1915 80.8603 52.1495 80.2473C51.1075 79.6343 49.7913 80.0104 49.198 81.087C48.5997 82.1637 48.9687 83.5391 50.0057 84.1573C50.0057 84.1573 50.0306 84.1727 50.0356 84.1727C50.3746 84.3736 50.7385 84.4664 51.0975 84.4664C51.8453 84.4612 52.5732 84.0491 52.9771 83.3227Z" fill="url(#paint6_linear_71_100)"/>
<path d="M67.2509 84.3788C67.0465 83.1579 65.8998 82.344 64.7132 82.5552C63.5317 82.7664 62.7389 83.9306 62.9483 85.1515C63.1328 86.2436 64.0502 87.0112 65.0872 87.0112C65.2118 87.0112 65.3364 87.0009 65.4661 86.9751L65.5109 86.9648C66.6925 86.7588 67.4603 85.5997 67.2509 84.3788Z" fill="url(#paint7_linear_71_100)"/>
<path d="M51.0676 47.1852C51.4465 47.1852 51.8254 47.0873 52.1744 46.8761C53.2114 46.2527 53.5654 44.8773 52.9621 43.8058C52.3589 42.7343 51.0277 42.3685 49.9907 42.9919L49.9508 43.0176C48.9138 43.6409 48.5798 45.0061 49.183 46.0776C49.5819 46.7885 50.3148 47.1852 51.0676 47.1852Z" fill="url(#paint8_linear_71_100)"/>
<path d="M42.6669 54.0933C41.5401 53.6709 40.2937 54.2788 39.8849 55.443L41.914 56.2518L39.8749 55.4791C39.4611 56.6433 40.0394 57.9363 41.1662 58.3587C41.4155 58.4515 41.6647 58.4978 41.914 58.4978C42.8015 58.4978 43.6341 57.9363 43.9531 57.0245C43.9531 57.0193 43.9731 56.973 43.9731 56.9678C44.3769 55.7984 43.7936 54.5157 42.6669 54.0933Z" fill="url(#paint9_linear_71_100)"/>
<path d="M62.9334 41.9822C62.729 43.2031 63.5416 44.3724 64.7232 44.5837C64.8479 44.6043 64.9775 44.6197 65.1021 44.6197C66.1391 44.6197 67.0565 43.8521 67.241 42.76C67.4454 41.5391 66.6576 40.3749 65.476 40.1637L65.4312 40.1534C64.2446 39.937 63.1428 40.7613 62.9334 41.9822Z" fill="url(#paint10_linear_71_100)"/>
<path d="M76.0106 47.958C75.0882 48.7513 74.9686 50.1679 75.7364 51.1209C75.7464 51.1312 75.7862 51.1828 75.7962 51.1931C76.225 51.6979 76.8183 51.9554 77.4215 51.9554C77.9251 51.9554 78.4286 51.7752 78.8424 51.4095C79.7448 50.6058 79.8495 49.1891 79.0767 48.2464L77.4016 49.6786L79.0668 48.2361C78.299 47.2882 76.9329 47.1647 76.0106 47.958Z" fill="url(#paint11_linear_71_100)"/>
<path d="M68.4325 31.8698L68.5272 31.8904C68.6917 31.9265 68.8513 31.9471 69.0158 31.9471C70.0179 31.9471 70.9203 31.231 71.1546 30.1801C71.4238 28.9592 70.681 27.7435 69.4994 27.4705L69.4047 27.4499C68.2231 27.1768 67.0465 27.9393 66.7822 29.1602C66.513 30.3811 67.2559 31.5916 68.4325 31.8698Z" fill="url(#paint12_linear_71_100)"/>
<path d="M56.1729 97.9684C56.4421 96.7475 55.6993 95.5317 54.5177 95.2587L54.4379 95.2381C53.2563 94.9496 52.0797 95.7069 51.8005 96.9278C51.5263 98.1487 52.2542 99.3644 53.4358 99.6529L53.5455 99.6786C53.71 99.7147 53.8695 99.7353 54.0341 99.7353C55.0412 99.7353 55.9435 99.0193 56.1729 97.9684Z" fill="url(#paint13_linear_71_100)"/>
<path d="M90.8279 46.3918C89.741 46.9379 89.2973 48.3133 89.8258 49.4415L89.8457 49.4879C90.2246 50.2863 90.9924 50.7448 91.7951 50.7448C92.1191 50.7448 92.4532 50.6675 92.7673 50.513C93.8541 49.9669 94.2979 48.5915 93.7694 47.4633L93.7494 47.417C93.221 46.2939 91.9197 45.8458 90.8279 46.3918Z" fill="url(#paint14_linear_71_100)"/>
<path d="M42.2531 92.1678C43.0059 91.189 42.8414 89.7569 41.8941 88.9739L41.8293 88.9224C40.877 88.1497 39.501 88.3197 38.7482 89.3036C38.0003 90.2875 38.1649 91.7145 39.1171 92.4872L39.157 92.5181L39.1819 92.5387C39.5808 92.8684 40.0594 93.0281 40.533 93.0281C41.1762 93.0281 41.8193 92.7293 42.2531 92.1678Z" fill="url(#paint15_linear_71_100)"/>
<path d="M81.0511 38.1186L81.1259 38.1804C81.5297 38.5101 82.0083 38.6698 82.4869 38.6698C83.1351 38.6698 83.7732 38.3761 84.207 37.8146C84.9598 36.8358 84.8003 35.4089 83.853 34.631L83.7782 34.5692C82.8309 33.7913 81.4499 33.951 80.6971 34.9298C79.9443 35.9137 80.1038 37.3407 81.0511 38.1186Z" fill="url(#paint16_linear_71_100)"/>
<path d="M30.0532 63.5668V63.5153C30.0532 62.2635 29.0711 61.2487 27.8596 61.2487C26.6481 61.2487 25.6659 62.2635 25.6659 63.5153V63.5308C25.6659 63.5411 25.6659 63.6029 25.6659 63.6132C25.6659 64.865 26.6481 65.8541 27.8596 65.8541C29.0711 65.8592 30.0532 64.8186 30.0532 63.5668Z" fill="url(#paint17_linear_71_100)"/>
<path d="M40.4831 38.6956C40.9667 38.6956 41.4503 38.5307 41.8542 38.1959L41.919 38.1444C42.8663 37.3665 43.0258 35.9395 42.273 34.9607C41.5201 33.982 40.1391 33.8171 39.1919 34.595L39.1071 34.6671C38.1648 35.4501 38.0153 36.8771 38.7731 37.8559C39.2068 38.4071 39.845 38.6956 40.4831 38.6956Z" fill="url(#paint18_linear_71_100)"/>
<path d="M32.1522 46.397C31.0604 45.8561 29.7492 46.3352 29.2257 47.4633L29.1858 47.5458C28.6573 48.6739 29.116 50.0288 30.2078 50.5697C30.5169 50.7242 30.841 50.7963 31.1601 50.7963C31.9727 50.7963 32.7605 50.3224 33.1344 49.5136L33.1793 49.4158C33.7077 48.2927 33.2441 46.9379 32.1522 46.397Z" fill="url(#paint19_linear_71_100)"/>
<path d="M33.1294 77.6046C32.6009 76.4816 31.2996 76.0334 30.2078 76.5794C29.1209 77.1255 28.6772 78.5009 29.2057 79.6291L29.2256 79.6755C29.6045 80.474 30.3723 80.9324 31.175 80.9324C31.4991 80.9324 31.8331 80.8552 32.1472 80.7006C33.2341 80.1546 33.6778 78.7791 33.1493 77.6509C33.1543 77.6509 33.1294 77.6046 33.1294 77.6046Z" fill="url(#paint20_linear_71_100)"/>
<path d="M53.9493 31.9574C54.1088 31.9574 54.2734 31.9368 54.4379 31.9008L54.5326 31.8802C55.7142 31.602 56.4521 30.3862 56.1829 29.1653C55.9136 27.9444 54.737 27.182 53.5554 27.4602L53.4657 27.4808C52.2841 27.759 51.5462 28.9696 51.8105 30.1905C52.0448 31.2414 52.9472 31.9574 53.9493 31.9574Z" fill="url(#paint21_linear_71_100)"/>
<path d="M71.1397 96.9587C70.8705 95.7378 69.6988 94.9753 68.5172 95.2484L68.4375 95.269C67.2559 95.5369 66.508 96.7475 66.7673 97.9684C66.9916 99.0244 67.899 99.7456 68.9061 99.7456C69.0607 99.7456 69.2202 99.7302 69.3798 99.6941L69.4845 99.6683C70.666 99.3902 71.4089 98.1796 71.1397 96.9587Z" fill="url(#paint22_linear_71_100)"/>
<path d="M97.3291 63.6853V63.4793C97.3291 62.2275 96.3469 61.2126 95.1354 61.2126C93.9239 61.2126 92.9417 62.2275 92.9417 63.4793V63.6544C92.9317 64.9062 93.9089 65.9262 95.1204 65.9365C95.1254 65.9365 95.1304 65.9365 95.1354 65.9365C96.3419 65.9314 97.3191 64.932 97.3291 63.6853Z" fill="url(#paint23_linear_71_100)"/>
<path d="M92.7672 76.6052C91.6754 76.0592 90.3642 76.5331 89.8407 77.6613L89.7958 77.7592C89.2723 78.8873 89.736 80.2422 90.8278 80.7831C91.1319 80.9325 91.456 81.0046 91.7751 81.0046C92.5927 81.0046 93.3755 80.5307 93.7544 79.7167L93.7943 79.6343C94.3178 78.5061 93.8591 77.1513 92.7672 76.6052Z" fill="url(#paint24_linear_71_100)"/>
<path d="M84.192 89.319C83.4342 88.3454 82.0532 88.1909 81.1059 88.9739L81.0511 89.0203C80.0988 89.793 79.9343 91.2199 80.6821 92.2039C81.1159 92.7705 81.759 93.0693 82.4071 93.0693C82.8808 93.0693 83.3594 92.9096 83.7632 92.5851L83.858 92.5078C84.8002 91.7196 84.9498 90.2927 84.192 89.319Z" fill="url(#paint25_linear_71_100)"/>
<path d="M57.5888 18.0278C57.6486 18.0278 57.7084 18.0278 57.7682 18.0175L57.9128 18.0072C59.1293 17.9042 60.0367 16.8018 59.937 15.5397C59.8373 14.2827 58.7704 13.34 57.5489 13.4482L57.4043 13.4585C56.1878 13.5615 55.2804 14.6639 55.3801 15.9209C55.4799 17.1212 56.4471 18.0278 57.5888 18.0278Z" fill="url(#paint26_linear_71_100)"/>
<path d="M72.2864 19.2281L72.416 19.2642C72.6004 19.3106 72.7849 19.3363 72.9644 19.3363C73.9516 19.3363 74.8539 18.6512 75.1082 17.6157C75.4123 16.3897 74.6944 15.1482 73.5128 14.8339L73.3633 14.7979C72.1767 14.4888 70.9751 15.2306 70.676 16.4566C70.3819 17.6775 71.1048 18.919 72.2864 19.2281Z" fill="url(#paint27_linear_71_100)"/>
<path d="M107.953 61.1765C106.732 61.1765 105.74 62.2017 105.74 63.4638V63.7059C105.735 64.968 106.717 65.9983 107.943 66.0035C107.948 66.0035 107.953 66.0035 107.953 66.0035C109.17 66.0035 110.162 64.9886 110.167 63.7265V63.4638C110.162 62.2017 109.175 61.1765 107.953 61.1765Z" fill="url(#paint28_linear_71_100)"/>
<path d="M88.7688 102.497C88.1007 101.44 86.7297 101.142 85.7076 101.837L85.593 101.914C84.5659 102.6 84.2768 104.016 84.9398 105.077C85.3636 105.752 86.0716 106.118 86.7995 106.118C87.2133 106.118 87.6271 106 88.001 105.752L88.1306 105.665C89.1527 104.969 89.4369 103.553 88.7688 102.497Z" fill="url(#paint29_linear_71_100)"/>
<path d="M29.9934 30.582C30.5319 30.582 31.0703 30.3811 31.4941 29.9741L31.5838 29.8917C32.4912 29.0469 32.561 27.5993 31.7434 26.6617C30.9257 25.7242 29.5248 25.652 28.6174 26.4969L28.4928 26.6154C27.5954 27.4705 27.5405 28.9181 28.3681 29.8453C28.8069 30.3347 29.4001 30.582 29.9934 30.582Z" fill="url(#paint30_linear_71_100)"/>
<path d="M99.8468 32.6064C99.094 31.6122 97.703 31.4319 96.7408 32.2098C95.7785 32.9876 95.604 34.4249 96.3569 35.4191L96.4366 35.5273C96.8704 36.1094 97.5285 36.4185 98.1916 36.4185C98.6652 36.4185 99.1388 36.264 99.5427 35.9446C100.51 35.1719 100.689 33.7397 99.9465 32.7352L99.8468 32.6064Z" fill="url(#paint31_linear_71_100)"/>
<path d="M59.8921 111.594C59.9918 110.337 59.0844 109.235 57.868 109.132L57.7383 109.121C56.5119 109.008 55.4499 109.946 55.3403 111.203C55.2356 112.459 56.138 113.567 57.3544 113.68L57.509 113.696C57.5688 113.701 57.6287 113.706 57.6885 113.706C58.8302 113.696 59.7974 112.789 59.8921 111.594Z" fill="url(#paint32_linear_71_100)"/>
<path d="M99.5178 91.2406C98.5506 90.4678 97.1646 90.6481 96.4117 91.6475L96.3369 91.7454C95.5791 92.7345 95.7387 94.1718 96.6959 94.9599C97.1047 95.2948 97.5883 95.4545 98.067 95.4545C98.7201 95.4545 99.3682 95.1557 99.8019 94.589L99.9066 94.4551C100.659 93.4505 100.485 92.0133 99.5178 91.2406Z" fill="url(#paint33_linear_71_100)"/>
<path d="M42.7766 21.9173C43.0757 21.9173 43.3748 21.8555 43.664 21.7216L43.7986 21.6597C44.9154 21.1497 45.4239 19.8001 44.9303 18.6461C44.4368 17.4922 43.1305 16.9668 42.0138 17.4767L41.8841 17.5386C40.7674 18.0486 40.2538 19.3931 40.7474 20.5522C41.1114 21.4073 41.924 21.9173 42.7766 21.9173Z" fill="url(#paint34_linear_71_100)"/>
<path d="M106.159 76.9916C105.002 76.5846 103.746 77.2234 103.352 78.4185L103.307 78.5473C102.908 79.7424 103.526 81.0303 104.678 81.4424C104.912 81.5249 105.156 81.5661 105.396 81.5661C106.318 81.5661 107.181 80.9633 107.5 80.0155L107.54 79.8918C107.938 78.6967 107.315 77.3985 106.159 76.9916Z" fill="url(#paint35_linear_71_100)"/>
<path d="M15.3058 57.9724C15.4255 57.993 15.5501 58.0033 15.6648 58.0033C16.7267 58.0033 17.669 57.2099 17.8435 56.0869L17.8634 55.953C18.0679 54.7063 17.2602 53.5266 16.0537 53.3154C14.8521 53.1042 13.7054 53.9388 13.501 55.1854L13.4761 55.3451C13.2817 56.5918 14.0993 57.7715 15.3058 57.9724Z" fill="url(#paint36_linear_71_100)"/>
<path d="M31.6836 100.457C32.5112 99.5293 32.4563 98.0817 31.5589 97.2265L31.4542 97.1235C30.5568 96.2684 29.1559 96.325 28.3283 97.2523C27.5007 98.1796 27.5555 99.6271 28.4529 100.482L28.5576 100.585C28.9814 100.992 29.5198 101.193 30.0583 101.193C30.6565 101.188 31.2498 100.941 31.6836 100.457Z" fill="url(#paint37_linear_71_100)"/>
<path d="M17.8635 71.1447L17.8385 70.9953C17.6391 69.7486 16.4974 68.9038 15.2959 69.1098C14.0893 69.3159 13.2717 70.4904 13.4711 71.7371L13.4961 71.8813C13.6755 73.0043 14.6128 73.7977 15.6748 73.7977C15.7944 73.7977 15.9141 73.7874 16.0337 73.7668C17.2452 73.5658 18.0629 72.3913 17.8635 71.1447Z" fill="url(#paint38_linear_71_100)"/>
<path d="M75.0683 109.549C74.7692 108.323 73.5677 107.581 72.3811 107.89L72.2465 107.926C71.0599 108.23 70.342 109.472 70.6361 110.698C70.8854 111.738 71.7878 112.429 72.7799 112.429C72.9594 112.429 73.1389 112.408 73.3184 112.362L73.463 112.326C74.6446 112.016 75.3675 110.77 75.0683 109.549Z" fill="url(#paint39_linear_71_100)"/>
<path d="M44.8854 108.472C45.379 107.318 44.8755 105.969 43.7537 105.459L43.6191 105.397C42.4973 104.887 41.1961 105.412 40.7025 106.571C40.2089 107.73 40.7175 109.075 41.8392 109.585L41.9689 109.642C42.258 109.776 42.5622 109.837 42.8613 109.837C43.7088 109.832 44.5165 109.327 44.8854 108.472Z" fill="url(#paint40_linear_71_100)"/>
<path d="M21.7422 38.6336C20.6703 38.0309 19.3242 38.4379 18.7409 39.5454L18.6661 39.6845C18.0828 40.7973 18.4866 42.183 19.5635 42.7857C19.8976 42.9712 20.2565 43.0588 20.6155 43.0588C21.4032 43.0588 22.166 42.626 22.5649 41.8585L22.6297 41.7348C23.208 40.6273 22.8141 39.2364 21.7422 38.6336Z" fill="url(#paint41_linear_71_100)"/>
<path d="M104.698 45.7273C103.541 46.1394 102.928 47.4376 103.327 48.6328L103.372 48.7718C103.686 49.7197 104.543 50.3173 105.466 50.3173C105.705 50.3173 105.949 50.2761 106.184 50.1936C107.34 49.7815 107.953 48.4834 107.555 47.2882L107.51 47.1491C107.111 45.9488 105.854 45.3152 104.698 45.7273Z" fill="url(#paint42_linear_71_100)"/>
<path d="M85.6328 25.2502L85.7425 25.3223C86.1164 25.5799 86.5402 25.7035 86.959 25.7035C87.6769 25.7035 88.3799 25.3429 88.8087 24.6784C89.4817 23.6275 89.2025 22.2057 88.1805 21.5102L88.0459 21.4175C87.0188 20.7272 85.6478 21.0311 84.9847 22.0872C84.3166 23.1484 84.6058 24.5599 85.6328 25.2502Z" fill="url(#paint43_linear_71_100)"/>
<path d="M22.535 85.2338C21.9517 84.1211 20.6105 83.709 19.5336 84.3117C18.4567 84.9145 18.0579 86.3002 18.6412 87.4129L18.711 87.5469C19.1099 88.3093 19.8727 88.742 20.6554 88.742C21.0144 88.742 21.3733 88.6544 21.7123 88.4638C22.7843 87.8611 23.1831 86.4702 22.5998 85.3626L22.535 85.2338Z" fill="url(#paint44_linear_71_100)"/>
<path d="M114.709 31.6844C114.091 30.5819 112.725 30.2059 111.658 30.8447C110.591 31.4835 110.227 32.895 110.845 33.9974L110.94 34.1622C111.354 34.904 112.101 35.3162 112.874 35.3162C113.253 35.3162 113.637 35.2183 113.986 35.0071C115.053 34.3683 115.422 32.9619 114.804 31.8544L114.709 31.6844Z" fill="url(#paint45_linear_71_100)"/>
<path d="M116.623 48.3803C116.893 49.4106 117.795 50.0906 118.777 50.0906C118.967 50.0906 119.161 50.0649 119.355 50.0133C120.547 49.6836 121.255 48.4215 120.936 47.1903L120.886 46.9946C120.567 45.7634 119.341 45.037 118.149 45.3667C116.957 45.6964 116.254 46.9637 116.574 48.1949L116.623 48.3803Z" fill="url(#paint46_linear_71_100)"/>
<path d="M61.4028 4.63916H61.5923C62.8237 4.63916 63.8258 3.60886 63.8258 2.3313C63.8258 1.05373 62.8287 0.0234375 61.5923 0.0234375H61.4028C60.1714 0.0234375 59.1692 1.05373 59.1692 2.3313C59.1692 3.60886 60.1714 4.63916 61.4028 4.63916Z" fill="url(#paint47_linear_71_100)"/>
<path d="M76.1751 6.60702L76.3546 6.65338C76.549 6.7049 76.7385 6.73066 76.928 6.73066C77.9101 6.73066 78.8026 6.04551 79.0718 5.01521C79.3909 3.78401 78.6679 2.51675 77.4764 2.18706L77.3168 2.14069C76.1253 1.81615 74.9038 2.55281 74.5897 3.78401C74.2756 5.01521 74.9786 6.28248 76.1751 6.60702Z" fill="url(#paint48_linear_71_100)"/>
<path d="M101.881 21.9532C102.32 22.4066 102.888 22.6332 103.461 22.6332C104.03 22.6332 104.598 22.4117 105.037 21.9636C105.909 21.0672 105.914 19.6042 105.047 18.7027L104.902 18.5533C104.03 17.6569 102.614 17.6569 101.746 18.5636C100.879 19.4651 100.879 20.9281 101.756 21.8245L101.881 21.9532Z" fill="url(#paint49_linear_71_100)"/>
<path d="M119.341 77.1873C118.149 76.8576 116.927 77.584 116.603 78.8152L116.554 79.0109C116.234 80.2421 116.942 81.5042 118.134 81.8339C118.328 81.8854 118.523 81.9112 118.712 81.9112C119.699 81.9112 120.602 81.2312 120.866 80.2009L120.916 80.0103C121.24 78.7843 120.532 77.517 119.341 77.1873Z" fill="url(#paint50_linear_71_100)"/>
<path d="M89.9354 12.4694L90.09 12.5621C90.444 12.7785 90.8328 12.8764 91.2117 12.8764C91.9795 12.8764 92.7274 12.4694 93.1412 11.7327C93.7644 10.6303 93.4054 9.21883 92.3385 8.57489L92.159 8.46671C91.0871 7.83308 89.726 8.21429 89.1128 9.31671C88.4946 10.4243 88.8635 11.8358 89.9354 12.4694Z" fill="url(#paint51_linear_71_100)"/>
<path d="M113.956 92.1884C112.889 91.5497 111.523 91.9257 110.905 93.0281L110.81 93.1981C110.192 94.3005 110.551 95.7121 111.618 96.3508C111.972 96.562 112.356 96.6651 112.74 96.6651C113.507 96.6651 114.255 96.253 114.674 95.5163L114.774 95.3411C115.387 94.2387 115.023 92.8272 113.956 92.1884Z" fill="url(#paint52_linear_71_100)"/>
<path d="M120.766 61.1302C119.535 61.1302 118.533 62.1605 118.533 63.4381V63.7575C118.528 65.03 119.525 66.0705 120.756 66.0756C120.761 66.0756 120.761 66.0756 120.766 66.0756C121.993 66.0756 122.995 65.0505 123 63.7781V63.4381C123 62.1605 121.998 61.1302 120.766 61.1302Z" fill="url(#paint53_linear_71_100)"/>
<path d="M11.3472 30.8447C10.2803 30.2059 8.91424 30.5768 8.29603 31.6792L8.19632 31.8595C7.58309 32.9619 7.95202 34.3734 9.01894 35.0071C9.36794 35.2131 9.75183 35.3161 10.1307 35.3161C10.9035 35.3161 11.6563 34.8989 12.0701 34.1571L12.1599 33.9973C12.7731 32.9 12.4092 31.4835 11.3472 30.8447Z" fill="url(#paint54_linear_71_100)"/>
<path d="M21.0692 105.139C20.2017 104.238 18.7858 104.233 17.9133 105.129C17.0408 106.025 17.0358 107.488 17.9033 108.39L18.0479 108.539C18.4816 108.987 19.055 109.209 19.6234 109.209C20.1967 109.209 20.77 108.982 21.2038 108.529C22.0713 107.627 22.0713 106.164 21.1938 105.268L21.0692 105.139Z" fill="url(#paint55_linear_71_100)"/>
<path d="M33.0097 114.633L32.8552 114.541C31.7883 113.902 30.4222 114.273 29.804 115.375C29.1858 116.478 29.5447 117.889 30.6117 118.528L30.7862 118.631C31.1351 118.837 31.519 118.94 31.8979 118.94C32.6707 118.94 33.4235 118.523 33.8373 117.781C34.4456 116.679 34.0767 115.267 33.0097 114.633Z" fill="url(#paint56_linear_71_100)"/>
<path d="M76.2898 120.501L76.1153 120.547C74.9237 120.872 74.2108 122.134 74.5249 123.365C74.7891 124.401 75.6915 125.086 76.6837 125.086C76.8731 125.086 77.0626 125.06 77.257 125.008L77.4515 124.957C78.643 124.627 79.346 123.36 79.0269 122.129C78.7028 120.898 77.4764 120.171 76.2898 120.501Z" fill="url(#paint57_linear_71_100)"/>
<path d="M30.841 8.47192L30.6715 8.57495C29.6046 9.21373 29.2406 10.6253 29.8588 11.7277C30.2726 12.4644 31.0205 12.8765 31.7932 12.8765C32.1721 12.8765 32.556 12.7786 32.91 12.5674L33.0696 12.4695C34.1365 11.8307 34.5054 10.4244 33.8872 9.31676C33.269 8.20919 31.9079 7.83313 30.841 8.47192Z" fill="url(#paint58_linear_71_100)"/>
<path d="M61.4975 122.5H61.3479C61.3429 122.5 61.3429 122.5 61.3379 122.5C60.1115 122.5 59.1094 123.525 59.1044 124.797C59.0994 126.07 60.0915 127.11 61.328 127.115H61.5274C62.7588 127.115 63.746 126.085 63.746 124.808C63.746 123.53 62.7339 122.5 61.4975 122.5Z" fill="url(#paint59_linear_71_100)"/>
<path d="M45.6831 2.14589L45.4887 2.1974C44.2971 2.5271 43.5942 3.79436 43.9132 5.02556C44.1825 6.05585 45.0849 6.73585 46.067 6.73585C46.2565 6.73585 46.4559 6.71008 46.6503 6.65858L46.8248 6.61221C48.0164 6.28767 48.7293 5.02556 48.4152 3.79436C48.0962 2.55285 46.8747 1.82134 45.6831 2.14589Z" fill="url(#paint60_linear_71_100)"/>
<path d="M46.775 120.516L46.5855 120.465C45.394 120.135 44.1725 120.867 43.8534 122.098C43.5343 123.329 44.2423 124.591 45.4339 124.921L45.6183 124.972C45.8128 125.024 46.0072 125.05 46.2016 125.05C47.1888 125.05 48.0862 124.37 48.3554 123.339C48.6695 122.113 47.9616 120.846 46.775 120.516Z" fill="url(#paint61_linear_71_100)"/>
<path d="M101.836 105.232L101.706 105.366C100.834 106.262 100.829 107.725 101.696 108.627C102.135 109.08 102.704 109.307 103.277 109.307C103.845 109.307 104.414 109.085 104.852 108.637L104.992 108.493C105.864 107.591 105.864 106.133 104.992 105.232C104.124 104.33 102.709 104.33 101.836 105.232Z" fill="url(#paint62_linear_71_100)"/>
<path d="M4.46711 63.6339V63.4484C4.47209 62.1759 3.47996 61.1353 2.24851 61.1302C2.24352 61.1302 2.23854 61.1302 2.23355 61.1302C1.00709 61.1302 0.00997122 62.1553 0 63.4226V63.6339C0 64.9062 0.997122 65.9418 2.23355 65.9418C3.46998 65.9418 4.46711 64.9115 4.46711 63.6339Z" fill="url(#paint63_linear_71_100)"/>
<path d="M19.5386 22.6281C20.112 22.6281 20.6853 22.4014 21.1191 21.9481L21.2437 21.8193C22.1162 20.923 22.1212 19.46 21.2537 18.5584C20.3862 17.6569 18.9703 17.6518 18.0978 18.5481L17.9532 18.6975C17.0857 19.599 17.0857 21.0621 17.9632 21.9584C18.3969 22.4066 18.9653 22.6281 19.5386 22.6281Z" fill="url(#paint64_linear_71_100)"/>
<path d="M90.0351 114.608L89.8806 114.7C88.8087 115.334 88.4397 116.74 89.053 117.848C89.4668 118.59 90.2196 119.007 90.9924 119.007C91.3663 119.007 91.7502 118.909 92.0992 118.703L92.2737 118.6C93.3406 117.961 93.7046 116.55 93.0863 115.447C92.4681 114.345 91.1021 113.969 90.0351 114.608Z" fill="url(#paint65_linear_71_100)"/>
<path d="M4.84105 45.3821C3.64949 45.0524 2.42303 45.7994 2.10395 47.0306L2.05908 47.1954C1.74498 48.4266 2.45793 49.6888 3.64949 50.0133C3.83894 50.0648 4.03338 50.0906 4.22283 50.0906C5.20998 50.0906 6.11736 49.4054 6.3816 48.37L6.42647 48.1845C6.74555 46.9585 6.03261 45.7118 4.84105 45.3821Z" fill="url(#paint66_linear_71_100)"/>
<path d="M6.36162 78.7019C6.04753 77.4707 4.82606 76.734 3.6345 77.0586C2.44294 77.3831 1.72999 78.6452 2.04409 79.8764L2.09394 80.0773C2.36316 81.1076 3.26556 81.7876 4.24773 81.7876C4.43718 81.7876 4.6366 81.7619 4.83104 81.7104C6.0226 81.3807 6.72557 80.1134 6.4065 78.8822L6.36162 78.7019Z" fill="url(#paint67_linear_71_100)"/>
<path d="M12.0352 92.9251C11.422 91.8175 10.0609 91.4312 8.98903 92.0648C7.91712 92.6984 7.5432 94.1048 8.15643 95.2123L8.26113 95.3978C8.67493 96.1345 9.42277 96.5466 10.1955 96.5466C10.5745 96.5466 10.9583 96.4487 11.3123 96.2375C12.3792 95.5987 12.7432 94.1872 12.125 93.0848L12.0352 92.9251Z" fill="url(#paint68_linear_71_100)"/>
</g>
</g>
</g>
<defs>
<linearGradient id="paint0_linear_71_100" x1="-3.58963e-05" y1="63.5693" x2="112.017" y2="83.6599" gradientUnits="userSpaceOnUse">
<stop stop-color="#0063F4"/>
<stop offset="1" stop-color="#00F0AA"/>
</linearGradient>
<linearGradient id="paint1_linear_71_100" x1="2.47997e-05" y1="63.5693" x2="112.017" y2="83.6598" gradientUnits="userSpaceOnUse">
<stop stop-color="#0063F4"/>
<stop offset="1" stop-color="#00F0AA"/>
</linearGradient>
<linearGradient id="paint2_linear_71_100" x1="-2.38621e-05" y1="63.5694" x2="112.017" y2="83.6599" gradientUnits="userSpaceOnUse">
<stop stop-color="#0063F4"/>
<stop offset="1" stop-color="#00F0AA"/>
</linearGradient>
<linearGradient id="paint3_linear_71_100" x1="-2.39717e-05" y1="63.5694" x2="112.017" y2="83.6599" gradientUnits="userSpaceOnUse">
<stop stop-color="#0063F4"/>
<stop offset="1" stop-color="#00F0AA"/>
</linearGradient>
<linearGradient id="paint4_linear_71_100" x1="-9.04708e-05" y1="63.5694" x2="112.017" y2="83.6599" gradientUnits="userSpaceOnUse">
<stop stop-color="#0063F4"/>
<stop offset="1" stop-color="#00F0AA"/>
</linearGradient>
<linearGradient id="paint5_linear_71_100" x1="-4.88372e-05" y1="63.5694" x2="112.017" y2="83.6599" gradientUnits="userSpaceOnUse">
<stop stop-color="#0063F4"/>
<stop offset="1" stop-color="#00F0AA"/>
</linearGradient>
<linearGradient id="paint6_linear_71_100" x1="1.71739e-06" y1="63.5694" x2="112.017" y2="83.6599" gradientUnits="userSpaceOnUse">
<stop stop-color="#0063F4"/>
<stop offset="1" stop-color="#00F0AA"/>
</linearGradient>
<linearGradient id="paint7_linear_71_100" x1="-1.39507e-05" y1="63.5694" x2="112.017" y2="83.6599" gradientUnits="userSpaceOnUse">
<stop stop-color="#0063F4"/>
<stop offset="1" stop-color="#00F0AA"/>
</linearGradient>
<linearGradient id="paint8_linear_71_100" x1="-8.08453e-06" y1="63.5694" x2="112.017" y2="83.6599" gradientUnits="userSpaceOnUse">
<stop stop-color="#0063F4"/>
<stop offset="1" stop-color="#00F0AA"/>
</linearGradient>
<linearGradient id="paint9_linear_71_100" x1="1.34183e-05" y1="63.5694" x2="112.017" y2="83.6599" gradientUnits="userSpaceOnUse">
<stop stop-color="#0063F4"/>
<stop offset="1" stop-color="#00F0AA"/>
</linearGradient>
<linearGradient id="paint10_linear_71_100" x1="2.78881e-05" y1="63.5694" x2="112.017" y2="83.6599" gradientUnits="userSpaceOnUse">
<stop stop-color="#0063F4"/>
<stop offset="1" stop-color="#00F0AA"/>
</linearGradient>
<linearGradient id="paint11_linear_71_100" x1="-4.39191e-05" y1="63.5694" x2="112.017" y2="83.66" gradientUnits="userSpaceOnUse">
<stop stop-color="#0063F4"/>
<stop offset="1" stop-color="#00F0AA"/>
</linearGradient>
<linearGradient id="paint12_linear_71_100" x1="2.26829e-05" y1="63.5694" x2="112.017" y2="83.6599" gradientUnits="userSpaceOnUse">
<stop stop-color="#0063F4"/>
<stop offset="1" stop-color="#00F0AA"/>
</linearGradient>
<linearGradient id="paint13_linear_71_100" x1="-2.81023e-05" y1="63.5694" x2="112.017" y2="83.6599" gradientUnits="userSpaceOnUse">
<stop stop-color="#0063F4"/>
<stop offset="1" stop-color="#00F0AA"/>
</linearGradient>
<linearGradient id="paint14_linear_71_100" x1="-7.0791e-05" y1="63.5694" x2="112.017" y2="83.6599" gradientUnits="userSpaceOnUse">
<stop stop-color="#0063F4"/>
<stop offset="1" stop-color="#00F0AA"/>
</linearGradient>
<linearGradient id="paint15_linear_71_100" x1="-5.89383e-06" y1="63.5694" x2="112.017" y2="83.6599" gradientUnits="userSpaceOnUse">
<stop stop-color="#0063F4"/>
<stop offset="1" stop-color="#00F0AA"/>
</linearGradient>
<linearGradient id="paint16_linear_71_100" x1="6.47383e-06" y1="63.5694" x2="112.017" y2="83.6599" gradientUnits="userSpaceOnUse">
<stop stop-color="#0063F4"/>
<stop offset="1" stop-color="#00F0AA"/>
</linearGradient>
<linearGradient id="paint17_linear_71_100" x1="-9.12625e-06" y1="63.5694" x2="112.017" y2="83.6598" gradientUnits="userSpaceOnUse">
<stop stop-color="#0063F4"/>
<stop offset="1" stop-color="#00F0AA"/>
</linearGradient>
<linearGradient id="paint18_linear_71_100" x1="3.3166e-05" y1="63.5694" x2="112.017" y2="83.6598" gradientUnits="userSpaceOnUse">
<stop stop-color="#0063F4"/>
<stop offset="1" stop-color="#00F0AA"/>
</linearGradient>
<linearGradient id="paint19_linear_71_100" x1="9.54986e-06" y1="63.5694" x2="112.017" y2="83.6599" gradientUnits="userSpaceOnUse">
<stop stop-color="#0063F4"/>
<stop offset="1" stop-color="#00F0AA"/>
</linearGradient>
<linearGradient id="paint20_linear_71_100" x1="5.46254e-06" y1="63.5694" x2="112.017" y2="83.6599" gradientUnits="userSpaceOnUse">
<stop stop-color="#0063F4"/>
<stop offset="1" stop-color="#00F0AA"/>
</linearGradient>
<linearGradient id="paint21_linear_71_100" x1="1.60878e-05" y1="63.5694" x2="112.017" y2="83.6599" gradientUnits="userSpaceOnUse">
<stop stop-color="#0063F4"/>
<stop offset="1" stop-color="#00F0AA"/>
</linearGradient>
<linearGradient id="paint22_linear_71_100" x1="2.81631e-05" y1="63.5694" x2="112.017" y2="83.6599" gradientUnits="userSpaceOnUse">
<stop stop-color="#0063F4"/>
<stop offset="1" stop-color="#00F0AA"/>
</linearGradient>
<linearGradient id="paint23_linear_71_100" x1="3.6003e-05" y1="63.5694" x2="112.017" y2="83.6599" gradientUnits="userSpaceOnUse">
<stop stop-color="#0063F4"/>
<stop offset="1" stop-color="#00F0AA"/>
</linearGradient>
<linearGradient id="paint24_linear_71_100" x1="3.65935e-05" y1="63.5694" x2="112.017" y2="83.6599" gradientUnits="userSpaceOnUse">
<stop stop-color="#0063F4"/>
<stop offset="1" stop-color="#00F0AA"/>
</linearGradient>
<linearGradient id="paint25_linear_71_100" x1="-3.41275e-05" y1="63.5695" x2="112.017" y2="83.66" gradientUnits="userSpaceOnUse">
<stop stop-color="#0063F4"/>
<stop offset="1" stop-color="#00F0AA"/>
</linearGradient>
<linearGradient id="paint26_linear_71_100" x1="9.76105e-06" y1="63.5693" x2="112.017" y2="83.6599" gradientUnits="userSpaceOnUse">
<stop stop-color="#0063F4"/>
<stop offset="1" stop-color="#00F0AA"/>
</linearGradient>
<linearGradient id="paint27_linear_71_100" x1="2.57347e-05" y1="63.5694" x2="112.017" y2="83.6599" gradientUnits="userSpaceOnUse">
<stop stop-color="#0063F4"/>
<stop offset="1" stop-color="#00F0AA"/>
</linearGradient>
<linearGradient id="paint28_linear_71_100" x1="-3.83614e-05" y1="63.5694" x2="112.017" y2="83.6599" gradientUnits="userSpaceOnUse">
<stop stop-color="#0063F4"/>
<stop offset="1" stop-color="#00F0AA"/>
</linearGradient>
<linearGradient id="paint29_linear_71_100" x1="-2.20106e-05" y1="63.5694" x2="112.017" y2="83.6599" gradientUnits="userSpaceOnUse">
<stop stop-color="#0063F4"/>
<stop offset="1" stop-color="#00F0AA"/>
</linearGradient>
<linearGradient id="paint30_linear_71_100" x1="3.79657e-06" y1="63.5694" x2="112.017" y2="83.6599" gradientUnits="userSpaceOnUse">
<stop stop-color="#0063F4"/>
<stop offset="1" stop-color="#00F0AA"/>
</linearGradient>
<linearGradient id="paint31_linear_71_100" x1="-2.53124e-05" y1="63.5693" x2="112.017" y2="83.6598" gradientUnits="userSpaceOnUse">
<stop stop-color="#0063F4"/>
<stop offset="1" stop-color="#00F0AA"/>
</linearGradient>
<linearGradient id="paint32_linear_71_100" x1="-4.56769e-06" y1="63.5695" x2="112.017" y2="83.66" gradientUnits="userSpaceOnUse">
<stop stop-color="#0063F4"/>
<stop offset="1" stop-color="#00F0AA"/>
</linearGradient>
<linearGradient id="paint33_linear_71_100" x1="-2.07922e-05" y1="63.5695" x2="112.017" y2="83.66" gradientUnits="userSpaceOnUse">
<stop stop-color="#0063F4"/>
<stop offset="1" stop-color="#00F0AA"/>
</linearGradient>
<linearGradient id="paint34_linear_71_100" x1="-2.59273e-05" y1="63.5694" x2="112.017" y2="83.66" gradientUnits="userSpaceOnUse">
<stop stop-color="#0063F4"/>
<stop offset="1" stop-color="#00F0AA"/>
</linearGradient>
<linearGradient id="paint35_linear_71_100" x1="-2.44296e-05" y1="63.5694" x2="112.017" y2="83.6599" gradientUnits="userSpaceOnUse">
<stop stop-color="#0063F4"/>
<stop offset="1" stop-color="#00F0AA"/>
</linearGradient>
<linearGradient id="paint36_linear_71_100" x1="-3.15007e-06" y1="63.5694" x2="112.017" y2="83.6599" gradientUnits="userSpaceOnUse">
<stop stop-color="#0063F4"/>
<stop offset="1" stop-color="#00F0AA"/>
</linearGradient>
<linearGradient id="paint37_linear_71_100" x1="-2.30484e-06" y1="63.5694" x2="112.017" y2="83.6599" gradientUnits="userSpaceOnUse">
<stop stop-color="#0063F4"/>
<stop offset="1" stop-color="#00F0AA"/>
</linearGradient>
<linearGradient id="paint38_linear_71_100" x1="1.46712e-06" y1="63.5694" x2="112.017" y2="83.6599" gradientUnits="userSpaceOnUse">
<stop stop-color="#0063F4"/>
<stop offset="1" stop-color="#00F0AA"/>
</linearGradient>
<linearGradient id="paint39_linear_71_100" x1="3.12086e-05" y1="63.5694" x2="112.017" y2="83.6599" gradientUnits="userSpaceOnUse">
<stop stop-color="#0063F4"/>
<stop offset="1" stop-color="#00F0AA"/>
</linearGradient>
<linearGradient id="paint40_linear_71_100" x1="4.5813e-06" y1="63.5694" x2="112.017" y2="83.6599" gradientUnits="userSpaceOnUse">
<stop stop-color="#0063F4"/>
<stop offset="1" stop-color="#00F0AA"/>
</linearGradient>
<linearGradient id="paint41_linear_71_100" x1="-7.36651e-06" y1="63.5693" x2="112.017" y2="83.6598" gradientUnits="userSpaceOnUse">
<stop stop-color="#0063F4"/>
<stop offset="1" stop-color="#00F0AA"/>
</linearGradient>
<linearGradient id="paint42_linear_71_100" x1="7.38509e-05" y1="63.5694" x2="112.017" y2="83.6599" gradientUnits="userSpaceOnUse">
<stop stop-color="#0063F4"/>
<stop offset="1" stop-color="#00F0AA"/>
</linearGradient>
<linearGradient id="paint43_linear_71_100" x1="2.89974e-05" y1="63.5695" x2="112.017" y2="83.6599" gradientUnits="userSpaceOnUse">
<stop stop-color="#0063F4"/>
<stop offset="1" stop-color="#00F0AA"/>
</linearGradient>
<linearGradient id="paint44_linear_71_100" x1="-2.46454e-06" y1="63.5693" x2="112.017" y2="83.6598" gradientUnits="userSpaceOnUse">
<stop stop-color="#0063F4"/>
<stop offset="1" stop-color="#00F0AA"/>
</linearGradient>
<linearGradient id="paint45_linear_71_100" x1="-6.12197e-06" y1="63.5694" x2="112.017" y2="83.6599" gradientUnits="userSpaceOnUse">
<stop stop-color="#0063F4"/>
<stop offset="1" stop-color="#00F0AA"/>
</linearGradient>
<linearGradient id="paint46_linear_71_100" x1="-7.57615e-06" y1="63.5694" x2="112.017" y2="83.6599" gradientUnits="userSpaceOnUse">
<stop stop-color="#0063F4"/>
<stop offset="1" stop-color="#00F0AA"/>
</linearGradient>
<linearGradient id="paint47_linear_71_100" x1="-4.75847e-06" y1="63.5694" x2="112.017" y2="83.6599" gradientUnits="userSpaceOnUse">
<stop stop-color="#0063F4"/>
<stop offset="1" stop-color="#00F0AA"/>
</linearGradient>
<linearGradient id="paint48_linear_71_100" x1="-2.58236e-05" y1="63.5694" x2="112.017" y2="83.6599" gradientUnits="userSpaceOnUse">
<stop stop-color="#0063F4"/>
<stop offset="1" stop-color="#00F0AA"/>
</linearGradient>
<linearGradient id="paint49_linear_71_100" x1="-1.90101e-05" y1="63.5694" x2="112.017" y2="83.6599" gradientUnits="userSpaceOnUse">
<stop stop-color="#0063F4"/>
<stop offset="1" stop-color="#00F0AA"/>
</linearGradient>
<linearGradient id="paint50_linear_71_100" x1="2.0438e-05" y1="63.5694" x2="112.017" y2="83.6599" gradientUnits="userSpaceOnUse">
<stop stop-color="#0063F4"/>
<stop offset="1" stop-color="#00F0AA"/>
</linearGradient>
<linearGradient id="paint51_linear_71_100" x1="4.88793e-05" y1="63.5694" x2="112.017" y2="83.6599" gradientUnits="userSpaceOnUse">
<stop stop-color="#0063F4"/>
<stop offset="1" stop-color="#00F0AA"/>
</linearGradient>
<linearGradient id="paint52_linear_71_100" x1="-0.000114115" y1="63.5694" x2="112.017" y2="83.6599" gradientUnits="userSpaceOnUse">
<stop stop-color="#0063F4"/>
<stop offset="1" stop-color="#00F0AA"/>
</linearGradient>
<linearGradient id="paint53_linear_71_100" x1="-7.88631e-05" y1="63.5694" x2="112.017" y2="83.66" gradientUnits="userSpaceOnUse">
<stop stop-color="#0063F4"/>
<stop offset="1" stop-color="#00F0AA"/>
</linearGradient>
<linearGradient id="paint54_linear_71_100" x1="4.10914e-06" y1="63.5694" x2="112.017" y2="83.6599" gradientUnits="userSpaceOnUse">
<stop stop-color="#0063F4"/>
<stop offset="1" stop-color="#00F0AA"/>
</linearGradient>
<linearGradient id="paint55_linear_71_100" x1="-6.61194e-06" y1="63.5694" x2="112.017" y2="83.6599" gradientUnits="userSpaceOnUse">
<stop stop-color="#0063F4"/>
<stop offset="1" stop-color="#00F0AA"/>
</linearGradient>
<linearGradient id="paint56_linear_71_100" x1="1.33005e-06" y1="63.5693" x2="112.017" y2="83.6598" gradientUnits="userSpaceOnUse">
<stop stop-color="#0063F4"/>
<stop offset="1" stop-color="#00F0AA"/>
</linearGradient>
<linearGradient id="paint57_linear_71_100" x1="2.16244e-05" y1="63.5694" x2="112.017" y2="83.6599" gradientUnits="userSpaceOnUse">
<stop stop-color="#0063F4"/>
<stop offset="1" stop-color="#00F0AA"/>
</linearGradient>
<linearGradient id="paint58_linear_71_100" x1="7.47224e-06" y1="63.5694" x2="112.017" y2="83.6599" gradientUnits="userSpaceOnUse">
<stop stop-color="#0063F4"/>
<stop offset="1" stop-color="#00F0AA"/>
</linearGradient>
<linearGradient id="paint59_linear_71_100" x1="3.95077e-05" y1="63.5694" x2="112.017" y2="83.6599" gradientUnits="userSpaceOnUse">
<stop stop-color="#0063F4"/>
<stop offset="1" stop-color="#00F0AA"/>
</linearGradient>
<linearGradient id="paint60_linear_71_100" x1="8.10361e-06" y1="63.5694" x2="112.017" y2="83.6599" gradientUnits="userSpaceOnUse">
<stop stop-color="#0063F4"/>
<stop offset="1" stop-color="#00F0AA"/>
</linearGradient>
<linearGradient id="paint61_linear_71_100" x1="5.07837e-06" y1="63.5693" x2="112.017" y2="83.6598" gradientUnits="userSpaceOnUse">
<stop stop-color="#0063F4"/>
<stop offset="1" stop-color="#00F0AA"/>
</linearGradient>
<linearGradient id="paint62_linear_71_100" x1="7.52065e-05" y1="63.5695" x2="112.017" y2="83.66" gradientUnits="userSpaceOnUse">
<stop stop-color="#0063F4"/>
<stop offset="1" stop-color="#00F0AA"/>
</linearGradient>
<linearGradient id="paint63_linear_71_100" x1="2.14333e-07" y1="63.5695" x2="112.017" y2="83.6599" gradientUnits="userSpaceOnUse">
<stop stop-color="#0063F4"/>
<stop offset="1" stop-color="#00F0AA"/>
</linearGradient>
<linearGradient id="paint64_linear_71_100" x1="-3.34885e-06" y1="63.5694" x2="112.017" y2="83.6599" gradientUnits="userSpaceOnUse">
<stop stop-color="#0063F4"/>
<stop offset="1" stop-color="#00F0AA"/>
</linearGradient>
<linearGradient id="paint65_linear_71_100" x1="-2.6089e-05" y1="63.5694" x2="112.017" y2="83.6599" gradientUnits="userSpaceOnUse">
<stop stop-color="#0063F4"/>
<stop offset="1" stop-color="#00F0AA"/>
</linearGradient>
<linearGradient id="paint66_linear_71_100" x1="6.74624e-06" y1="63.5694" x2="112.017" y2="83.6599" gradientUnits="userSpaceOnUse">
<stop stop-color="#0063F4"/>
<stop offset="1" stop-color="#00F0AA"/>
</linearGradient>
<linearGradient id="paint67_linear_71_100" x1="-7.8447e-06" y1="63.5694" x2="112.017" y2="83.6599" gradientUnits="userSpaceOnUse">
<stop stop-color="#0063F4"/>
<stop offset="1" stop-color="#00F0AA"/>
</linearGradient>
<linearGradient id="paint68_linear_71_100" x1="1.74132e-06" y1="63.5694" x2="112.017" y2="83.6599" gradientUnits="userSpaceOnUse">
<stop stop-color="#0063F4"/>
<stop offset="1" stop-color="#00F0AA"/>
</linearGradient>
<clipPath id="clip0_71_100">
<rect width="123" height="128" fill="white"/>
</clipPath>
<clipPath id="clip1_71_100">
<rect width="123" height="128" fill="white"/>
</clipPath>
</defs>
</svg>
